<?xml version="1.0" encoding="UTF-8"?>
<svg version="1.1" xmlns="http://www.w3.org/2000/svg" width="602" height="360" viewBox="0 0 592 360">
<path d="M0 0 C13.08851918 10.18636588 23.06807006 23.89117564 25.36181641 40.64233398 C25.59386128 43.34364435 25.77347753 46.0437489 25.9375 48.75 C27.36908999 67.04918776 32.39307788 81.59240593 46.05078125 94.5234375 C58.61739263 105.07606216 71.97545781 108.01651864 87.89697266 109.21875 C95.42730666 109.83040336 101.95975953 111.13583389 109 114 C109.87527344 114.34804687 110.75054687 114.69609375 111.65234375 115.0546875 C118.54220385 118.1333615 123.69009412 122.70803299 129 128 C129.639375 128.61617187 130.27875 129.23234375 130.9375 129.8671875 C141.26640275 140.6110908 145.88933713 155.35240788 146.375 170 C145.80124484 187.30445576 139.40703239 201.96042327 127 214 C126.36320313 214.64582031 125.72640625 215.29164063 125.0703125 215.95703125 C113.9108466 226.58399151 100.09188108 229.76163975 85.25 230.875 C67.33713148 232.27258586 52.90187032 238.00386504 40.2890625 251.27734375 C29.74939037 263.81343842 27.05041995 277.51059691 25.77905273 293.30786133 C24.24082757 311.1179531 16.91938741 324.86487798 3.87890625 336.96875 C-10.77989144 349.23372568 -27.62182403 351.38181774 -46 350 C-62.25501006 347.16182364 -75.78383772 337.44369876 -85.47265625 324.3125 C-94.8782768 310.07176505 -97.98646708 293.86327395 -94.66796875 277.06542969 C-90.89942007 260.93133066 -81.01422728 246.88654102 -67 238 C-56.48010745 232.3971544 -47.07233372 229.92777806 -35.3125 229.125 C-18.41509341 227.74044862 -2.8998404 222.749829 9 210 C18.98449953 197.82225267 25.54461345 181.97019974 24 166 C22.74940365 153.58088346 18.49686712 142.96370257 11 133 C10.55011719 132.38511719 10.10023438 131.77023438 9.63671875 131.13671875 C-0.54973511 118.19561821 -16.22113234 112.92321811 -32 111 C-34.39421933 110.82971051 -36.79024041 110.68262993 -39.1875 110.5625 C-56.45585445 109.54209724 -70.57880271 101.46799699 -82.00390625 88.7734375 C-92.84137198 75.52504527 -97.09464248 60.0455627 -95.66796875 43.04296875 C-93.36020666 26.02740409 -84.79155438 12.24114547 -71.75 1.25 C-50.70232781 -14.34223351 -21.59384742 -14.43867955 0 0 Z " fill="#F44250" transform="translate(336,10)"/>
<path d="M0 0 C0.92554688 0.40089844 1.85109375 0.80179687 2.8046875 1.21484375 C18.54748095 8.90785188 28.0729239 21.93165581 34.0546875 38.0546875 C39.06581817 53.66787976 36.5454363 71.14129212 29.4375 85.625 C20.85490183 100.24560693 7.58285312 110.21968513 -8.6015625 115.08203125 C-21.29928396 118.13449569 -36.05240811 117.16652622 -48 112 C-48.87527344 111.649375 -49.75054687 111.29875 -50.65234375 110.9375 C-57.54795938 107.87750416 -62.69337095 103.28870125 -68 98 C-68.639375 97.38382812 -69.27875 96.76765625 -69.9375 96.1328125 C-80.26640275 85.3889092 -84.88933713 70.64759212 -85.375 56 C-84.80124484 38.69554424 -78.40703239 24.03957673 -66 12 C-65.36320312 11.35417969 -64.72640625 10.70835937 -64.0703125 10.04296875 C-58.75692397 4.98312365 -52.71978557 1.85396298 -46 -1 C-45.19433594 -1.34289062 -44.38867188 -1.68578125 -43.55859375 -2.0390625 C-30.28148328 -6.59973929 -12.70236666 -5.64353059 0 0 Z " fill="#121212" transform="translate(205,124)"/>
<path d="M0 0 C13.65618804 9.48561925 22.88079647 23.00973909 26.24609375 39.35546875 C28.88997538 58.00610658 24.6333199 74.22507656 13.90625 89.54296875 C4.881131 100.51843127 -9.13811693 108.88270221 -23.25 110.91015625 C-43.13417044 112.20784083 -59.34244369 109.24196009 -75.0625 96.09765625 C-86.26837103 85.58075378 -93.73506262 70.96569786 -94.53515625 55.56640625 C-95.06008721 37.90556181 -90.48693989 23.09003371 -78.79296875 9.515625 C-57.93771298 -11.85220234 -25.2839778 -15.83610843 0 0 Z " fill="#121212" transform="translate(575.25,249.08984375)"/>
<path d="M0 0 C12.77494781 9.60117172 21.69492893 24.13253401 24 40 C25.43277193 57.84112526 21.95894865 73.27033491 10.875 87.6875 C0.90329093 99.26269998 -12.92511359 107.78394976 -28.38085938 109.22143555 C-47.41312767 110.09244783 -62.82550443 106.71885609 -77.8125 94.1875 C-89.9038496 82.83956068 -96.79035473 67.5734172 -97.35424805 51.04516602 C-97.52423823 34.29213305 -92.09486033 18.25127144 -80.3125 6.0546875 C-57.48663144 -14.22640517 -25.5164481 -17.72378284 0 0 Z " fill="#121212" transform="translate(97,251)"/>
</svg>
